<svg width="1482" height="418" viewBox="0 0 1482 418" fill="none" xmlns="http://www.w3.org/2000/svg" xmlns:xlink="http://www.w3.org/1999/xlink">
<path d="M156.403,418L1378.175,418C1466.253,418 1515.037,355.414 1456.273,316.34L1454.233,315.12C1387.385,272.092 1295.229,278.82 1286.795,279.494C1285.881,264.1 1279.695,216.15 1218.117,176.487C1150.565,132.996 1042.805,116.845 938.981,133.459C925.345,58.507 819.131,0 690.283,0C561.505,0 455.431,58.507 441.935,133.459C389.567,119.2 329.115,122.902 285.533,143.343C230.913,168.832 229.227,208.37 229.227,213.458C219.105,213.332 100.239,212.996 28.75,272.638C28.399,273.1 27.836,273.438 27.274,273.858C-43.723,334.51 32.686,418 156.403,418Z" fill="#FFFFFF"/>
</svg>
